<svg xmlns="http://www.w3.org/2000/svg" xmlns:xlink="http://www.w3.org/1999/xlink" width="112" height="102" viewBox="0 0 112 102">
  <defs>
    <filter id="Rectangle_13" x="0" y="0" width="112" height="102" filterUnits="userSpaceOnUse">
      <feOffset dy="12" input="SourceAlpha"/>
      <feGaussianBlur stdDeviation="12" result="blur"/>
      <feFlood flood-color="#ddc38e" flood-opacity="0.239"/>
      <feComposite operator="in" in2="blur"/>
      <feComposite in="SourceGraphic"/>
    </filter>
  </defs>
  <g id="Group_10" data-name="Group 10" transform="translate(-1335 -35)">
    <g transform="matrix(1, 0, 0, 1, 1335, 35)" filter="url(#Rectangle_13)">
      <rect id="Rectangle_13-2" data-name="Rectangle 13" width="40" height="30" rx="4" transform="translate(36 24)" fill="#fff"/>
    </g>
    <g id="united-kingdom" transform="translate(1376 -21.33)">
      <rect id="Rectangle_12" data-name="Rectangle 12" width="29.555" height="19.704" transform="translate(0 85.33)" fill="#f0f0f0"/>
      <path id="Path_17" data-name="Path 17" d="M16.625,85.33H12.93v8H0v3.694H12.93v8h3.694v-8h12.93V93.334H16.625Z" fill="#d80027"/>
      <g id="Group_6" data-name="Group 6" transform="translate(17.99 98.608)">
        <path id="Path_18" data-name="Path 18" d="M393.785,315.358l6.824,3.791v-3.791Z" transform="translate(-389.044 -315.358)" fill="#0052b4"/>
        <path id="Path_19" data-name="Path 19" d="M311.652,315.358l11.565,6.425v-1.817l-8.295-4.608Z" transform="translate(-311.652 -315.358)" fill="#0052b4"/>
        <path id="Path_20" data-name="Path 20" d="M320.137,349.712,311.652,345v4.714Z" transform="translate(-311.652 -343.287)" fill="#0052b4"/>
      </g>
      <path id="Path_21" data-name="Path 21" d="M311.652,315.358l11.565,6.425v-1.817l-8.295-4.608Z" transform="translate(-293.662 -216.75)" fill="#f0f0f0"/>
      <path id="Path_22" data-name="Path 22" d="M311.652,315.358l11.565,6.425v-1.817l-8.295-4.608Z" transform="translate(-293.662 -216.75)" fill="#d80027"/>
      <g id="Group_7" data-name="Group 7" transform="translate(0 98.608)">
        <path id="Path_23" data-name="Path 23" d="M5.215,315.356,0,318.253v-2.9Z" transform="translate(0 -315.356)" fill="#0052b4"/>
        <path id="Path_24" data-name="Path 24" d="M35.585,329.51v5.608H25.491Z" transform="translate(-24.02 -328.693)" fill="#0052b4"/>
      </g>
      <path id="Path_25" data-name="Path 25" d="M8.295,315.358,0,319.966v1.817H0l11.565-6.425Z" transform="translate(0 -216.75)" fill="#d80027"/>
      <g id="Group_8" data-name="Group 8" transform="translate(0 85.33)">
        <path id="Path_26" data-name="Path 26" d="M6.824,134.749,0,130.958v3.791Z" transform="translate(0 -128.324)" fill="#0052b4"/>
        <path id="Path_27" data-name="Path 27" d="M11.565,91.755,0,85.33v1.817l8.295,4.608Z" transform="translate(0 -85.33)" fill="#0052b4"/>
        <path id="Path_28" data-name="Path 28" d="M53.366,85.33l8.485,4.714V85.33Z" transform="translate(-50.285 -85.33)" fill="#0052b4"/>
      </g>
      <path id="Path_29" data-name="Path 29" d="M11.565,91.755,0,85.33v1.817l8.295,4.608Z" fill="#f0f0f0"/>
      <path id="Path_30" data-name="Path 30" d="M11.565,91.755,0,85.33v1.817l8.295,4.608Z" fill="#d80027"/>
      <g id="Group_9" data-name="Group 9" transform="translate(17.99 85.33)">
        <path id="Path_31" data-name="Path 31" d="M421.659,149.343l5.215-2.9v2.9Z" transform="translate(-415.309 -142.918)" fill="#0052b4"/>
        <path id="Path_32" data-name="Path 32" d="M311.652,90.939V85.331h10.094Z" transform="translate(-311.652 -85.331)" fill="#0052b4"/>
      </g>
      <path id="Path_33" data-name="Path 33" d="M314.922,91.755l8.295-4.608V85.33h0l-11.565,6.425Z" transform="translate(-293.662)" fill="#d80027"/>
    </g>
  </g>
</svg>
