<svg xmlns="http://www.w3.org/2000/svg" width="21.906" height="21.029" viewBox="0 0 21.906 21.029">
  <path id="Subscribe" d="M791.515,467.029a2.412,2.412,0,0,1-.347-.025,2.189,2.189,0,0,1-1.865-1.823l-.875-6.125a2.07,2.07,0,0,1,.468-1.63l2.726-3.215a1,1,0,1,1,1.525,1.293l-2.725,3.215.857,6.153a.189.189,0,0,0,.181.153.26.26,0,0,0,.291-.158l8.22-16.524a.234.234,0,0,0-.293-.324l-17.4,6.59a.266.266,0,0,0-.186.272.2.2,0,0,0,.156.2l3.638.84a1,1,0,0,1-.451,1.949l-3.7-.857a2.21,2.21,0,0,1-1.64-2.065,2.254,2.254,0,0,1,1.476-2.212l17.4-6.591a2.235,2.235,0,0,1,2.793,3.086l-8.22,16.524A2.244,2.244,0,0,1,791.515,467.029Z" transform="translate(-780.093 -446)" fill="#fff"/>
</svg>
