<svg xmlns="http://www.w3.org/2000/svg" width="22.515" height="22.976" viewBox="0 0 22.515 22.976">
  <path id="Path_322" data-name="Path 322" d="M898.528,236.129q-5.406,0-10.811,0c0,1.495,0,2.989,0,4.484h6.26a5.4,5.4,0,0,1-2.3,3.548,6.562,6.562,0,0,1-2.529,1,7.494,7.494,0,0,1-2.741-.008,6.747,6.747,0,0,1-2.557-1.1,7.136,7.136,0,0,1-2.633-3.528,6.954,6.954,0,0,1,0-4.473,7.132,7.132,0,0,1,1.667-2.709,6.751,6.751,0,0,1,6.8-1.768,6.23,6.23,0,0,1,2.477,1.455q1.059-1.053,2.113-2.112c.37-.379.758-.741,1.116-1.13a11.109,11.109,0,0,0-3.7-2.291,11.51,11.51,0,0,0-14.246,5.633,11.471,11.471,0,0,0,0,10.316,11.566,11.566,0,0,0,3.121,3.836,11.432,11.432,0,0,0,4.174,2.1,12.279,12.279,0,0,0,5.877.063,10.136,10.136,0,0,0,7.61-7.216A13.5,13.5,0,0,0,898.528,236.129Z" transform="translate(-876.23 -226.793)" fill="#28696f"/>
</svg>
