<svg xmlns="http://www.w3.org/2000/svg" width="22.777" height="22.777" viewBox="0 0 22.777 22.777">
  <g id="Group_35" data-name="Group 35" transform="translate(0)">
    <path id="Path_15" data-name="Path 15" d="M793.42,538.559a5.86,5.86,0,1,0,5.86,5.86A5.867,5.867,0,0,0,793.42,538.559Zm0,9.623a3.763,3.763,0,1,1,3.763-3.763A3.768,3.768,0,0,1,793.42,548.182Z" transform="translate(-782.031 -533.095)" fill="#28696f"/>
    <ellipse id="Ellipse_3" data-name="Ellipse 3" cx="1.33" cy="1.331" rx="1.33" ry="1.331" transform="translate(15.698 4.685) rotate(-25.241)" fill="#28696f"/>
    <path id="Path_16" data-name="Path 16" d="M796.457,528.521a6.609,6.609,0,0,0-4.823-1.864h-9.459a6.3,6.3,0,0,0-6.659,6.659v9.406a6.639,6.639,0,0,0,1.917,4.9,6.712,6.712,0,0,0,4.794,1.807h9.354a6.74,6.74,0,0,0,4.835-1.8,6.593,6.593,0,0,0,1.877-4.857v-9.459A6.627,6.627,0,0,0,796.457,528.521Zm-.26,14.254a4.554,4.554,0,0,1-1.245,3.357,4.7,4.7,0,0,1-3.37,1.206h-9.354a4.663,4.663,0,0,1-3.334-1.215,4.6,4.6,0,0,1-1.281-3.4v-9.406a4.222,4.222,0,0,1,4.562-4.562h9.459a4.261,4.261,0,0,1,4.563,4.563Z" transform="translate(-775.517 -526.657)" fill="#28696f"/>
  </g>
</svg>
