<svg xmlns="http://www.w3.org/2000/svg" width="22.574" height="22.718" viewBox="0 0 22.574 22.718">
  <g id="Group_75" data-name="Group 75" transform="translate(-75.74 -326)">
    <path id="Path_320" data-name="Path 320" d="M102.29,348.393v-.036l-.022.036Z" transform="translate(-14.412 -12.146)" fill="#28696f"/>
    <path id="Path_321" data-name="Path 321" d="M96.645,326H77.408a1.648,1.648,0,0,0-1.668,1.628V347.09a1.648,1.648,0,0,0,1.668,1.628H96.645a1.649,1.649,0,0,0,1.669-1.628V327.628A1.649,1.649,0,0,0,96.645,326ZM82.582,345.017h-3.41V334.759h3.41Zm-1.7-11.658h-.023a1.949,1.949,0,1,1,.023,0Zm14,11.658H91.467v-5.488c0-1.378-.493-2.319-1.727-2.319a1.867,1.867,0,0,0-1.749,1.247,2.326,2.326,0,0,0-.112.832v5.729H84.469s.045-9.3,0-10.258h3.409v1.452a3.387,3.387,0,0,1,3.073-1.694c2.243,0,3.925,1.467,3.925,4.618Z" fill="#28696f"/>
  </g>
</svg>
