<svg xmlns="http://www.w3.org/2000/svg" width="58.7" height="78.3" viewBox="0 0 18 24">
  <path id="Location" d="M504,455.9a4,4,0,1,1,4-4A4,4,0,0,1,504,455.9Zm0-6a2,2,0,1,0,2,2A2,2,0,0,0,504,449.9Zm.559,17.83a1,1,0,0,0,.27-1.389C497.439,455.378,497,454.569,497,451.9c0-2.411,1.864-6,7-6s7,3.589,7,6c0,2.213-.189,3.019-5.165,10.475a1,1,0,0,0,1.665,1.11c4.832-7.242,5.5-8.649,5.5-11.585,0-3.092-2.443-8-9-8s-9,4.908-9,8c0,3.345.692,4.467,8.171,15.56a1,1,0,0,0,1.388.27Z" transform="translate(-495 -443.898)" fill="#28696f"/>
</svg>
