<svg xmlns="http://www.w3.org/2000/svg" width="247.983" height="68.697" viewBox="0 0 247.983 68.697">
  <g id="Group_34" data-name="Group 34" transform="translate(-139.742 -42)">
    <g id="Group_3" data-name="Group 3" transform="translate(139.742 42)">
      <g id="Group_1" data-name="Group 1">
        <path id="Path_1" data-name="Path 1" d="M318.549,356.982c-3.341,0-8.23-.471-12.22-2.763l1.89-3.29c4.4,2.527,10.857,2.462,13.656,2.074a30.958,30.958,0,0,0,7.875-2.392l.641-.269a30.342,30.342,0,0,1,11.076-2.22c6.441,0,12.445,2.045,16.473,5.612l-2.515,2.841c-3.343-2.961-8.43-4.658-13.957-4.658a26.334,26.334,0,0,0-9.617,1.929l-.628.263a34.679,34.679,0,0,1-8.786,2.647A30.427,30.427,0,0,1,318.549,356.982Z" transform="translate(-301.266 -288.285)" fill="#ddc38e"/>
        <path id="Path_2" data-name="Path 2" d="M350.053,156.858v37.52l-1.632-1.417-1.511-1.315a16.447,16.447,0,0,0-1.866-1.385q-.417-.275-.873-.531c-.316-.183-.645-.367-.987-.537a28.4,28.4,0,0,0-9.511-3.124,32.528,32.528,0,0,0-3.548-.323l-1.037-.044-9.631-16.7-.013-.019-7.612,14.839a68.426,68.426,0,0,1,7.441-1.6c.854-.108,1.739-.19,2.662-.24l2.156,3.763c-6.767-.12-19.471,3.946-19.471,3.946l14.621-28.635,11.294,19.56.8,1.391c.544.038,1.069.082,1.581.133a31.244,31.244,0,0,1,8.329,2c.253.1.506.2.759.316.987.411,3.858,1.866,4.25,2.1V159.034l-1.214-.708-25.745-15-2.5,1.461-24.379,14.248v32.1A16.806,16.806,0,0,0,302,195.187a27.524,27.524,0,0,0,5.944-.095,47.134,47.134,0,0,0,9.271-2.5l.8-.278a35.887,35.887,0,0,1,7.544-1.948c.253-.025,2.435-.177,3.263-.177a25.533,25.533,0,0,1,15.7,4.964c.265.209.519.424.771.645l-2.517,2.846a13.243,13.243,0,0,0-1.2-.942,16.361,16.361,0,0,0-1.922-1.2,23.229,23.229,0,0,0-10.839-2.523c-.828,0-2.738.139-2.852.152a33.1,33.1,0,0,0-6.722,1.764l-.784.272a49.936,49.936,0,0,1-10.131,2.694,36.634,36.634,0,0,1-4,.24c-.759,0-1.575-.032-2.435-.108a20.357,20.357,0,0,1-12.471-5.464c-.076-.076-.8-.784-.8-.784V156.858L316.8,140.391l2.5-1.461Z" transform="translate(-288.629 -138.93)" fill="#ddc38e"/>
      </g>
    </g>
    <text id="Adriaville" transform="translate(213.725 89.753)" fill="#ddc38e" font-size="38" font-family="Poppins-Regular, Poppins"><tspan x="0" y="0">Adriaville</tspan></text>
  </g>
</svg>
