<svg xmlns="http://www.w3.org/2000/svg" width="194.258" height="53.167" viewBox="0 0 194.258 53.167">
  <g id="Group_12" data-name="Group 12" transform="translate(-139.742 -42)">
    <g id="Group_3" data-name="Group 3" transform="translate(139.742 42)">
      <g id="Group_1" data-name="Group 1">
        <path id="Path_1" data-name="Path 1" d="M315.787,354.979a19.57,19.57,0,0,1-9.458-2.138l1.463-2.546c3.4,1.956,8.4,1.906,10.569,1.605a23.96,23.96,0,0,0,6.1-1.851l.5-.208a23.482,23.482,0,0,1,8.572-1.718,19.367,19.367,0,0,1,12.749,4.343l-1.947,2.2a16.416,16.416,0,0,0-10.8-3.605,20.381,20.381,0,0,0-7.443,1.493l-.486.2a26.84,26.84,0,0,1-6.8,2.049A23.55,23.55,0,0,1,315.787,354.979Z" transform="translate(-302.411 -301.812)" fill="#28696f"/>
        <path id="Path_2" data-name="Path 2" d="M336.167,152.805v29.038l-1.263-1.1-1.17-1.018a12.73,12.73,0,0,0-1.444-1.072q-.323-.213-.675-.411c-.245-.142-.5-.284-.764-.416a21.976,21.976,0,0,0-7.361-2.418,25.173,25.173,0,0,0-2.746-.25l-.8-.034-7.454-12.921-.01-.015-5.891,11.485a52.956,52.956,0,0,1,5.759-1.241c.661-.083,1.346-.147,2.061-.186l1.669,2.912c-5.237-.093-15.07,3.054-15.07,3.054l11.316-22.161,8.741,15.138.622,1.077c.421.029.827.064,1.224.1a24.181,24.181,0,0,1,6.446,1.547c.2.078.391.157.587.245.764.318,2.985,1.444,3.289,1.625v-21.3l-.94-.548-19.925-11.609-1.933,1.131-18.867,11.027v24.844a13.006,13.006,0,0,0,7.415,3.137,21.3,21.3,0,0,0,4.6-.074,36.478,36.478,0,0,0,7.175-1.933l.621-.215a27.774,27.774,0,0,1,5.839-1.507c.2-.02,1.884-.137,2.525-.137a19.761,19.761,0,0,1,12.153,3.842c.205.162.4.328.6.5l-1.948,2.2a10.25,10.25,0,0,0-.925-.729,12.661,12.661,0,0,0-1.488-.925,17.978,17.978,0,0,0-8.389-1.953c-.641,0-2.119.108-2.207.118a25.614,25.614,0,0,0-5.2,1.365l-.607.211a38.647,38.647,0,0,1-7.841,2.085,28.352,28.352,0,0,1-3.1.186c-.587,0-1.219-.025-1.884-.083a15.755,15.755,0,0,1-9.651-4.229c-.059-.059-.622-.607-.622-.607v-27.78l21.8-12.745,1.933-1.131Z" transform="translate(-288.629 -138.93)" fill="#28696f"/>
      </g>
    </g>
    <text id="Adriaville" transform="translate(197 80)" fill="#28696f" font-size="30" font-family="Poppins-Regular, Poppins"><tspan x="0" y="0">Adriaville</tspan></text>
  </g>
</svg>
