<svg xmlns="http://www.w3.org/2000/svg" width="22.37" height="18.18" viewBox="0 0 22.37 18.18">
  <path id="Path_222" data-name="Path 222" d="M298.587,234.231a9.136,9.136,0,0,1-2.636.722,4.6,4.6,0,0,0,2.018-2.539,9.186,9.186,0,0,1-2.914,1.114,4.594,4.594,0,0,0-7.821,4.186,13.028,13.028,0,0,1-9.46-4.8,4.594,4.594,0,0,0,1.42,6.128,4.568,4.568,0,0,1-2.078-.574c0,.019,0,.039,0,.058a4.593,4.593,0,0,0,3.682,4.5,4.6,4.6,0,0,1-1.209.161,4.547,4.547,0,0,1-.864-.083,4.594,4.594,0,0,0,4.287,3.187,9.209,9.209,0,0,1-5.7,1.965,9.468,9.468,0,0,1-1.094-.064,13.052,13.052,0,0,0,20.094-11c0-.2,0-.4-.013-.594A9.322,9.322,0,0,0,298.587,234.231Z" transform="translate(-276.217 -232.079)" fill="#28696f"/>
</svg>
